<?xml version="1.0" encoding="UTF-8" standalone="no"?>
<svg
   xmlns:dc="http://purl.org/dc/elements/1.1/"
   xmlns:cc="http://creativecommons.org/ns#"
   xmlns:rdf="http://www.w3.org/1999/02/22-rdf-syntax-ns#"
   xmlns:svg="http://www.w3.org/2000/svg"
   xmlns="http://www.w3.org/2000/svg"
   xmlns:sodipodi="http://sodipodi.sourceforge.net/DTD/sodipodi-0.dtd"
   xmlns:inkscape="http://www.inkscape.org/namespaces/inkscape"
   version="1.0"
   width="160"
   height="160"
   viewBox="0 0 160 160"
   xml:space="preserve"
   id="svg2"
   inkscape:version="0.91 r13725"
   sodipodi:docname="loader2.svg"><metadata
     id="metadata34"><rdf:RDF><cc:Work
         rdf:about=""><dc:format>image/svg+xml</dc:format><dc:type
           rdf:resource="http://purl.org/dc/dcmitype/StillImage" /><dc:title /></cc:Work></rdf:RDF></metadata><defs
     id="defs32" /><sodipodi:namedview
     pagecolor="#ffffff"
     bordercolor="#666666"
     borderopacity="1"
     objecttolerance="10"
     gridtolerance="10"
     guidetolerance="10"
     inkscape:pageopacity="0"
     inkscape:pageshadow="2"
     inkscape:window-width="2560"
     inkscape:window-height="1377"
     id="namedview30"
     showgrid="false"
     inkscape:zoom="10.429825"
     inkscape:cx="50.289983"
     inkscape:cy="86.083013"
     inkscape:window-x="-8"
     inkscape:window-y="-8"
     inkscape:window-maximized="1"
     inkscape:current-layer="g4"
     fit-margin-top="016"
     fit-margin-left="0"
     fit-margin-right="0"
     fit-margin-bottom="0"
     showguides="true"
     inkscape:guide-bbox="true"><sodipodi:guide
       position="80,218.30508"
       orientation="1,0"
       id="guide4154" /><sodipodi:guide
       position="36.067797,80"
       orientation="0,1"
       id="guide4156" /></sodipodi:namedview>
	   <rect
     style="opacity:1;fill:#FFF;fill-opacity:0.25;stroke:none;stroke-width:0.40000001;stroke-linejoin:round;stroke-miterlimit:4;stroke-dasharray:none;stroke-opacity:1"
     id="rect4186"
     width="160"
     height="160"
     x="0"
     y="0"
     ry="40.931812" />
	   <g
     style="margin: 10px"
     id="g4"><path
       d="m 75.662979,16.191758 8,0 0,40 -8,0 0,-40 z"
       id="path6"
       inkscape:connector-curvature="0"
       style="fill:#000000;fill-opacity:1" /><path
       d="m 108.25247,22.566132 6.9282,4 -20,34.641016 -6.928203,-4 20.000003,-34.641016 z"
       id="path8"
       inkscape:connector-curvature="0"
       style="fill:#cccccc;fill-opacity:0.2" /><path
       d="m 133.28861,44.381246 4,6.928203 -34.64102,20 -4.000001,-6.928203 34.641021,-20 z"
       id="path10"
       inkscape:connector-curvature="0"
       style="fill:#cccccc;fill-opacity:0.2" /><path
       d="m 144.06298,75.791758 0,8 -40,0 0,-8 40,0 z"
       id="path12"
       inkscape:connector-curvature="0"
       style="fill:#cccccc;fill-opacity:0.2" /><path
       d="m 137.68861,108.38125 -4,6.9282 -34.641017,-20.000001 4.000007,-6.928203 34.64101,20.000004 z"
       id="path14"
       inkscape:connector-curvature="0"
       style="fill:#cccccc;fill-opacity:0.2" /><path
       d="m 115.8735,133.41739 -6.9282,4 -20.000008,-34.64102 6.928203,-4.000002 20.000005,34.641022 z"
       id="path16"
       inkscape:connector-curvature="0"
       style="fill:#b2b2b2;fill-opacity:0.3" /><path
       d="m 84.462979,144.19176 -8,0 0,-40 8,0 0,40 z"
       id="path18"
       inkscape:connector-curvature="0"
       style="fill:#999999;fill-opacity:0.4" /><path
       d="m 51.873491,137.81739 -6.928203,-4 20,-34.641018 6.928203,3.999998 -20,34.64102 z"
       id="path20"
       inkscape:connector-curvature="0"
       style="fill:#7f7f7f;fill-opacity:0.5" /><path
       d="m 26.837353,116.00228 -4,-6.92821 34.641016,-19.999999 4,6.928203 -34.641016,20.000006 z"
       id="path22"
       inkscape:connector-curvature="0"
       style="fill:#666666;fill-opacity:0.6" /><path
       d="m 16.062979,84.591758 0,-8 40,0 0,8 -40,0 z"
       id="path24"
       inkscape:connector-curvature="0"
       style="fill:#4c4c4c;fill-opacity:0.7" /><path
       d="m 22.437353,52.00227 4,-6.928203 34.641016,20 -4,6.928203 -34.641016,-20 z"
       id="path26"
       inkscape:connector-curvature="0"
       style="fill:#333333;fill-opacity:0.8" /><path
       d="m 44.252467,26.966132 6.928203,-4 20,34.641016 -6.928203,4 -20,-34.641016 z"
       id="path28"
       inkscape:connector-curvature="0"
       style="fill:#191919;fill-opacity:0.9" /><animateTransform
       attributeName="transform"
       type="rotate"
       values="0 80 80;30 80 80;60 80 80;90 80 80;120 80 80;150 80 80;180 80 80;210 80 80;240 80 80;270 80 80;300 80 80;330 80 80"
       calcMode="discrete"
       dur="1080ms"
       repeatCount="indefinite" /></g></svg>